[h264 @ 0x557a94fdedc0] Reinit context to 480x272, pix_fmt: yuv420p
Input #0, mov,mp4,m4a,3gp,3g2,mj2, from '/home/adminuser/project/media/video/original/trim.F6D3E6B0-A86F-478A-AC89-B4BE28715471.MOV':
  Metadata:
    major_brand     : qt  
    minor_version   : 0
    compatible_brands: qt  
    creation_time   : 2022-01-08T11:23:26.000000Z
  Duration: 00:00:26.93, start: 0.000000, bitrate: 833 kb/s
    Stream #0:0(und): Audio: aac (LC) (mp4a / 0x6134706D), 44100 Hz, stereo, fltp, 126 kb/s (default)
    Metadata:
      creation_time   : 2022-01-08T11:23:26.000000Z
      handler_name    : Core Media Audio
    Stream #0:1(und): Video: h264 (Main), 1 reference frame (avc1 / 0x31637661), yuv420p(tv, bt709, left), 480x264 (480x272), 701 kb/s, 29.74 fps, 29.75 tbr, 90k tbn, 180k tbc (default)
    Metadata:
      rotate          : 90
      creation_time   : 2022-01-08T11:23:26.000000Z
      handler_name    : Core Media Video
      encoder         : H.264
    Side data:
      displaymatrix: rotation of -90.00 degrees
Input #1, png_pipe, from '/home/adminuser/project/media/watermarks/logo_vertical.png':
  Duration: N/A, bitrate: N/A
    Stream #1:0: Video: png, 1 reference frame, rgba(pc), 1920x1080 [SAR 2835:2835 DAR 16:9], 25 tbr, 25 tbn, 25 tbc
[h264 @ 0x557a95034380] Reinit context to 1920x1088, pix_fmt: yuv420p
Input #2, mov,mp4,m4a,3gp,3g2,mj2, from '/home/adminuser/project/media/watermarks/Codino.mp4':
  Metadata:
    major_brand     : mp42
    minor_version   : 1
    compatible_brands: isommp41mp42
    creation_time   : 2021-07-11T12:49:20.000000Z
  Duration: 00:00:02.00, start: 0.000000, bitrate: 2134 kb/s
    Stream #2:0(ita): Audio: aac (LC) (mp4a / 0x6134706D), 44100 Hz, stereo, fltp, 171 kb/s (default)
    Metadata:
      creation_time   : 2021-07-11T12:49:20.000000Z
      handler_name    : Core Media Audio
    Stream #2:1(und): Video: h264 (Main), 1 reference frame (avc1 / 0x31637661), yuv420p(tv, bt709, progressive, left), 1920x1080 (1920x1088) [SAR 1:1 DAR 16:9], 1947 kb/s, 30 fps, 30 tbr, 30k tbn, 60k tbc (default)
    Metadata:
      creation_time   : 2021-07-11T12:49:20.000000Z
      handler_name    : Core Media Video
[Parsed_anullsrc_0 @ 0x557a95035680] sample_rate:44100 channel_layout:'stereo' nb_samples:1024
Input #3, lavfi, from 'anullsrc':
  Duration: N/A, start: 0.000000, bitrate: 705 kb/s
    Stream #3:0: Audio: pcm_u8, 44100 Hz, stereo, u8, 705 kb/s
[Parsed_scale_1 @ 0x557a95037940] w:1280 h:720 flags:'bilinear' interl:0
[Parsed_scale_4 @ 0x557a9504f8c0] w:-1 h:720 flags:'bilinear' interl:0
[Parsed_scale_7 @ 0x557a94fef240] w:1280 h:720 flags:'bilinear' interl:0
[Parsed_scale_9 @ 0x557a9503ae00] w:1280 h:720 flags:'bilinear' interl:0
Stream mapping:
  Stream #0:0 (aac) -> concat:in0:a0
  Stream #0:1 (h264) -> split
  Stream #1:0 (png) -> scale
  Stream #2:1 (h264) -> scale
  Stream #3:0 (pcm_u8) -> concat:in1:a0
  concat:out:v0 -> Stream #0:0 (libx264)
  concat:out:a0 -> Stream #0:1 (aac)
Press [q] to stop, [?] for help
[h264 @ 0x557a95197d00] Reinit context to 480x272, pix_fmt: yuv420p
[h264 @ 0x557a95291040] Reinit context to 1920x1088, pix_fmt: yuv420p
[Parsed_scale_1 @ 0x557a963dbbc0] w:1280 h:720 flags:'bilinear' interl:0
[Parsed_scale_4 @ 0x557a963075c0] w:-1 h:720 flags:'bilinear' interl:0
[Parsed_scale_7 @ 0x557a963db300] w:1280 h:720 flags:'bilinear' interl:0
[Parsed_scale_9 @ 0x557a963df340] w:1280 h:720 flags:'bilinear' interl:0
[graph 0 input from stream 0:1 @ 0x557a963e3b40] w:480 h:264 pixfmt:yuv420p tb:1/90000 fr:119/4 sar:0/1 sws_param:flags=2
[graph 0 input from stream 1:0 @ 0x557a963e54c0] w:1920 h:1080 pixfmt:rgba tb:1/25 fr:25/1 sar:2835/2835 sws_param:flags=2
[graph 0 input from stream 2:1 @ 0x557a963e65c0] w:1920 h:1080 pixfmt:yuv420p tb:1/30000 fr:30/1 sar:1/1 sws_param:flags=2
[graph_0_in_0_0 @ 0x557a963e7580] tb:1/44100 samplefmt:fltp samplerate:44100 chlayout:0x3
[graph_0_in_3_0 @ 0x557a963e86c0] tb:1/44100 samplefmt:u8 samplerate:44100 chlayout:0x3
[trim for input stream 3:0 @ 0x557a963e9600] auto-inserting filter 'auto_resampler_0' between the filter 'graph_0_in_3_0' and the filter 'trim for input stream 3:0'
[transpose @ 0x557a963e4900] w:480 h:264 dir:1 -> w:264 h:480 rotation:clockwise vflip:0
[Parsed_scale_1 @ 0x557a963dbbc0] w:264 h:480 fmt:yuv420p sar:0/1 -> w:1280 h:720 fmt:yuv420p sar:0/1 flags:0x2
[Parsed_boxblur_2 @ 0x557a963dc640] luma_radius:36 luma_power:1 chroma_radius:18 chroma_power:1 alpha_radius:36 alpha_power:1 w:1280 chroma_w:640 h:720 chroma_h:360
[Parsed_setsar_3 @ 0x557a963dde40] w:1280 h:720 sar:0/1 dar:16/9 -> sar:1/1 dar:16/9
[Parsed_scale_4 @ 0x557a963075c0] w:264 h:480 fmt:yuv420p sar:0/1 -> w:396 h:720 fmt:yuva420p sar:0/1 flags:0x2
[Parsed_setsar_5 @ 0x557a96307a40] w:396 h:720 sar:0/1 dar:11/20 -> sar:1/1 dar:11/20
[Parsed_overlay_6 @ 0x557a96307800] main w:1280 h:720 fmt:yuv420p overlay w:396 h:720 fmt:yuva420p
[Parsed_overlay_6 @ 0x557a96307800] [framesync @ 0x557a963dd268] Selected 1/90000 time base
[Parsed_overlay_6 @ 0x557a96307800] [framesync @ 0x557a963dd268] Sync level 2
[Parsed_scale_7 @ 0x557a963db300] w:1920 h:1080 fmt:rgba sar:2835/2835 -> w:1280 h:720 fmt:yuva420p sar:1/1 flags:0x2
[Parsed_setsar_8 @ 0x557a963de6c0] w:1280 h:720 sar:1/1 dar:16/9 -> sar:1/1 dar:16/9
[Parsed_overlay_11 @ 0x557a963e0a80] main w:1280 h:720 fmt:yuv420p overlay w:1280 h:720 fmt:yuva420p
[Parsed_overlay_11 @ 0x557a963e0a80] [framesync @ 0x557a963e0be8] Selected 1/90000 time base
[Parsed_overlay_11 @ 0x557a963e0a80] [framesync @ 0x557a963e0be8] Sync level 2
[Parsed_scale_9 @ 0x557a963df340] w:1920 h:1080 fmt:yuv420p sar:1/1 -> w:1280 h:720 fmt:yuv420p sar:1/1 flags:0x2
[Parsed_setsar_10 @ 0x557a963dfe00] w:1280 h:720 sar:1/1 dar:16/9 -> sar:1/1 dar:16/9
[auto_resampler_0 @ 0x557a963f2bc0] ch:2 chl:stereo fmt:u8 r:44100Hz -> ch:2 chl:stereo fmt:fltp r:44100Hz
[libx264 @ 0x557a94fecd40] using SAR=1/1
[libx264 @ 0x557a94fecd40] using cpu capabilities: MMX2 SSE2Fast SSSE3 SSE4.2 AVX FMA3 BMI2 AVX2
[libx264 @ 0x557a94fecd40] profile High, level 3.1
[libx264 @ 0x557a94fecd40] 264 - core 155 r2917 0a84d98 - H.264/MPEG-4 AVC codec - Copyleft 2003-2018 - http://www.videolan.org/x264.html - options: cabac=1 ref=1 deblock=1:0:0 analyse=0x3:0x113 me=hex subme=2 psy=1 psy_rd=1.00:0.00 mixed_ref=0 me_range=16 chroma_me=1 trellis=0 8x8dct=1 cqm=0 deadzone=21,11 fast_pskip=1 chroma_qp_offset=0 threads=22 lookahead_threads=5 sliced_threads=0 nr=0 decimate=1 interlaced=0 bluray_compat=0 constrained_intra=0 bframes=3 b_pyramid=2 b_adapt=1 b_bias=0 direct=1 weightb=1 open_gop=0 weightp=1 keyint=250 keyint_min=25 scenecut=40 intra_refresh=0 rc_lookahead=10 rc=crf mbtree=1 crf=18.0 qcomp=0.60 qpmin=0 qpmax=69 qpstep=4 ip_ratio=1.40 aq=1:1.00
Output #0, mp4, to '/home/adminuser/project/media/video/watermarks/trim.F6D3E6B0-A86F-478A-AC89-B4BE28715471.MOV':
  Metadata:
    major_brand     : qt  
    minor_version   : 0
    compatible_brands: qt  
    encoder         : Lavf58.29.100
    Stream #0:0: Video: h264 (libx264), 1 reference frame (avc1 / 0x31637661), yuv420p(progressive), 1280x720 [SAR 1:1 DAR 16:9], q=-1--1, 29.75 fps, 15232 tbn, 29.75 tbc (default)
    Metadata:
      encoder         : Lavc58.54.100 libx264
    Side data:
      cpb: bitrate max/min/avg: 0/0/0 buffer size: 0 vbv_delay: -1
    Stream #0:1: Audio: aac (LC) (mp4a / 0x6134706D), 44100 Hz, stereo, fltp, delay 1024, 128 kb/s (default)
    Metadata:
      encoder         : Lavc58.54.100 aac
[Parsed_concat_12 @ 0x557a963e1b80] EOF on in0:a0, 1 streams left in segment.
[Parsed_overlay_6 @ 0x557a96307800] [framesync @ 0x557a963dd268] Sync level 1
[Parsed_overlay_6 @ 0x557a96307800] [framesync @ 0x557a963dd268] Sync level 0
[Parsed_overlay_11 @ 0x557a963e0a80] [framesync @ 0x557a963e0be8] Sync level 0
[Parsed_concat_12 @ 0x557a963e1b80] EOF on in0:v0, 0 streams left in segment.
[Parsed_concat_12 @ 0x557a963e1b80] Segment finished at pts=26933696
[Parsed_concat_12 @ 0x557a963e1b80] EOF on in1:a0, 1 streams left in segment.
[Parsed_concat_12 @ 0x557a963e1b80] EOF on in1:v0, 0 streams left in segment.
[Parsed_concat_12 @ 0x557a963e1b80] Segment finished at pts=28933696
No more output streams to write to, finishing.
frame=  861 fps= 73 q=-1.0 Lsize=    6816kB time=00:00:28.84 bitrate=1936.0kbits/s speed=2.44x    
[AVIOContext @ 0x557a94fdb6c0] Statistics: 0 seeks, 24 writeouts
video:6363kB audio:422kB subtitle:0kB other streams:0kB global headers:0kB muxing overhead: 0.450650%
Input file #0 (/home/adminuser/project/media/video/original/trim.F6D3E6B0-A86F-478A-AC89-B4BE28715471.MOV):
  Input stream #0:0 (audio): 1162 packets read (425143 bytes); 1160 frames decoded (1187776 samples); 
  Input stream #0:1 (video): 801 packets read (2361120 bytes); 801 frames decoded; 
  Total: 1963 packets (2786263 bytes) demuxed
Input file #1 (/home/adminuser/project/media/watermarks/logo_vertical.png):
  Input stream #1:0 (video): 1 packets read (93903 bytes); 1 frames decoded; 
  Total: 1 packets (93903 bytes) demuxed
Input file #2 (/home/adminuser/project/media/watermarks/Codino.mp4):
  Input stream #2:0 (audio): 46 packets read (9660 bytes); 
  Input stream #2:1 (video): 60 packets read (486936 bytes); 60 frames decoded; 
  Total: 106 packets (496596 bytes) demuxed
Input file #3 (anullsrc):
  Input stream #3:0 (audio): 6 packets read (12288 bytes); 6 frames decoded (6144 samples); 
  Total: 6 packets (12288 bytes) demuxed
Output file #0 (/home/adminuser/project/media/video/watermarks/trim.F6D3E6B0-A86F-478A-AC89-B4BE28715471.MOV):
  Output stream #0:0 (video): 861 frames encoded; 861 packets muxed (6515856 bytes); 
  Output stream #0:1 (audio): 1165 frames encoded (1192186 samples); 1166 packets muxed (432331 bytes); 
  Total: 2027 packets (6948187 bytes) muxed
[AVIOContext @ 0x557a950554c0] Statistics: 2 seeks, 30 writeouts
[libx264 @ 0x557a94fecd40] frame I:5     Avg QP:12.56  size: 55440
[libx264 @ 0x557a94fecd40] frame P:247   Avg QP:16.67  size: 15748
[libx264 @ 0x557a94fecd40] frame B:609   Avg QP:18.92  size:  3856
[libx264 @ 0x557a94fecd40] consecutive B-frames:  3.6%  5.3%  2.8% 88.3%
[libx264 @ 0x557a94fecd40] mb I  I16..4: 42.3% 27.3% 30.4%
[libx264 @ 0x557a94fecd40] mb P  I16..4: 10.1%  8.0%  1.0%  P16..4: 25.1% 12.0%  6.7%  0.0%  0.0%    skip:37.1%
[libx264 @ 0x557a94fecd40] mb B  I16..4:  2.4%  1.7%  0.1%  B16..8: 15.6%  5.3%  0.4%  direct: 6.5%  skip:68.0%  L0:41.5% L1:48.0% BI:10.4%
[libx264 @ 0x557a94fecd40] 8x8 transform intra:40.1% inter:30.3%
[libx264 @ 0x557a94fecd40] coded y,uvDC,uvAC intra: 24.9% 36.7% 4.6% inter: 7.1% 11.3% 0.2%
[libx264 @ 0x557a94fecd40] i16 v,h,dc,p: 17% 54% 10% 18%
[libx264 @ 0x557a94fecd40] i8 v,h,dc,ddl,ddr,vr,hd,vl,hu:  7% 59% 18%  2%  2%  1%  6%  1%  3%
[libx264 @ 0x557a94fecd40] i4 v,h,dc,ddl,ddr,vr,hd,vl,hu: 15% 35% 19%  3%  6%  4%  9%  3%  6%
[libx264 @ 0x557a94fecd40] i8c dc,h,v,p: 46% 40%  6%  8%
[libx264 @ 0x557a94fecd40] Weighted P-Frames: Y:4.5% UV:0.4%
[libx264 @ 0x557a94fecd40] kb/s:1800.94
[aac @ 0x557a94fee200] Qavg: 438.172
[AVIOContext @ 0x557a94fe46c0] Statistics: 51234546 bytes read, 1558 seeks
[AVIOContext @ 0x557a94fe3c80] Statistics: 93903 bytes read, 0 seeks
[AVIOContext @ 0x557a94fe44c0] Statistics: 519704 bytes read, 1 seeks
